<svg width="16" height="16" viewBox="0 0 16 16" fill="none" xmlns="http://www.w3.org/2000/svg">
<g clip-path="url(#clip0_22_6534)">
<path d="M6.66667 15.9111C2.88889 15.2444 0 11.9556 0 8C0 3.6 3.6 0 8 0C12.4 0 16 3.6 16 8C16 11.9556 13.1111 15.2444 9.33333 15.9111L8.88889 15.5556H7.11111L6.66667 15.9111Z" fill="#787878"/>
<path d="M11.1114 10.2222L11.467 7.99997H9.33366V6.44442C9.33366 5.8222 9.55588 5.33331 10.5337 5.33331H11.5559V3.28886C10.9781 3.19997 10.3559 3.11108 9.7781 3.11108C7.95588 3.11108 6.66699 4.2222 6.66699 6.2222V7.99997H4.66699V10.2222H6.66699V15.8666C7.11144 15.9555 7.55588 16 8.00033 16C8.44477 16 8.88921 15.9555 9.33366 15.8666V10.2222H11.1114Z" fill="white"/>
</g>
<defs>
<clipPath id="clip0_22_6534">
<rect width="16" height="16" fill="white"/>
</clipPath>
</defs>
</svg>
